<svg width="374" height="444" viewBox="0 0 374 444" fill="none" xmlns="http://www.w3.org/2000/svg">
<mask id="mask0_156_199" style="mask-type:alpha" maskUnits="userSpaceOnUse" x="0" y="0" width="375" height="444">
<rect  width="375" height="444" rx="8" fill="#3029D9"/>
</mask>
<g mask="url(#mask0_156_199)">
<path d="M128 188C242.323 188 335 280.677 335 395L335 563L108.5 563C4.94662 563 -79 479.053 -79 375.5V375.5C-79 271.947 4.94662 188 108.5 188L128 188Z" fill="url(#paint0_linear_156_199)"/>
<path d="M344 605C246.246 605 167 525.754 167 428L167 284L360.5 284C449.142 284 521 355.858 521 444.5V444.5C521 533.142 449.142 605 360.5 605L344 605Z" fill="url(#paint1_linear_156_199)"/>
</g>
<defs>
<linearGradient id="paint0_linear_156_199" x1="1.25406" y1="324.062" x2="356.699" y2="414.325" gradientUnits="userSpaceOnUse">
<stop stop-color="white" stop-opacity="0.1"/>
<stop offset="1" stop-color="white" stop-opacity="0"/>
</linearGradient>
<linearGradient id="paint1_linear_156_199" x1="452.377" y1="488.531" x2="148.406" y2="411.423" gradientUnits="userSpaceOnUse">
<stop stop-color="white" stop-opacity="0.1"/>
<stop offset="1" stop-color="white" stop-opacity="0"/>
</linearGradient>
</defs>
</svg>
