<svg width="242" height="297" viewBox="0 0 242 297" fill="none" xmlns="http://www.w3.org/2000/svg">
<mask id="mask0_210_2" style="mask-type:alpha" maskUnits="userSpaceOnUse" x="0" y="0" width="189" height="297">
<path d="M0 296.743L40.623 296.743C122.566 296.743 188.995 230.315 188.995 148.372L188.995 94.4973C188.995 42.3079 146.687 -4.82114e-05 94.4973 -5.27739e-05V-5.27739e-05C42.3079 -5.73365e-05 2.22434e-05 42.3078 1.76809e-05 94.4973L0 296.743Z" fill="#C4C4C4"/>
</mask>
<g mask="url(#mask0_210_2)">
<rect x="-162.926" y="-191.6" width="434.47" height="651.705" fill="url(#paint0_linear_210_2)"/>
</g>
<mask id="mask1_210_2" style="mask-type:alpha" maskUnits="userSpaceOnUse" x="0" y="82" width="242" height="215">
<path d="M0 296.744L134.903 296.744C194.051 296.744 242 248.795 242 189.647V189.647C242 130.499 194.051 82.5505 134.903 82.5505L121 82.5505C54.1736 82.5505 1.39894e-05 136.724 8.14727e-06 203.551L0 296.744Z" fill="#C4C4C4"/>
</mask>
<g mask="url(#mask1_210_2)">
<rect x="-364.085" y="-12.1655" width="606.086" height="404.057" fill="url(#paint1_linear_210_2)"/>
</g>
<defs>
<linearGradient id="paint0_linear_210_2" x1="54.3089" y1="-191.6" x2="54.3089" y2="460.105" gradientUnits="userSpaceOnUse">
<stop stop-color="white"/>
<stop offset="1" stop-color="white" stop-opacity="0"/>
</linearGradient>
<linearGradient id="paint1_linear_210_2" x1="-61.0417" y1="-12.1655" x2="-61.0417" y2="391.892" gradientUnits="userSpaceOnUse">
<stop stop-color="white"/>
<stop offset="1" stop-color="white" stop-opacity="0"/>
</linearGradient>
</defs>
</svg>
