<svg width="822" height="804" viewBox="0 0 822 804" fill="none" xmlns="http://www.w3.org/2000/svg">
<g filter="url(#filter0_d_156_331)">
<rect x="100" y="50" width="290" height="284" rx="8" fill="white"/>
</g>
<path d="M176.596 211.152V214.44H172.132V228H168.028V214.44H163.564V211.152H176.596ZM191.28 221.088C191.28 221.472 191.256 221.872 191.208 222.288H181.92C181.984 223.12 182.248 223.76 182.712 224.208C183.192 224.64 183.776 224.856 184.464 224.856C185.488 224.856 186.2 224.424 186.6 223.56H190.968C190.744 224.44 190.336 225.232 189.744 225.936C189.168 226.64 188.44 227.192 187.56 227.592C186.68 227.992 185.696 228.192 184.608 228.192C183.296 228.192 182.128 227.912 181.104 227.352C180.08 226.792 179.28 225.992 178.704 224.952C178.128 223.912 177.84 222.696 177.84 221.304C177.84 219.912 178.12 218.696 178.68 217.656C179.256 216.616 180.056 215.816 181.08 215.256C182.104 214.696 183.28 214.416 184.608 214.416C185.904 214.416 187.056 214.688 188.064 215.232C189.072 215.776 189.856 216.552 190.416 217.56C190.992 218.568 191.28 219.744 191.28 221.088ZM187.08 220.008C187.08 219.304 186.84 218.744 186.36 218.328C185.88 217.912 185.28 217.704 184.56 217.704C183.872 217.704 183.288 217.904 182.808 218.304C182.344 218.704 182.056 219.272 181.944 220.008H187.08ZM192.629 221.304C192.629 219.912 192.909 218.696 193.469 217.656C194.045 216.616 194.837 215.816 195.845 215.256C196.869 214.696 198.037 214.416 199.349 214.416C201.029 214.416 202.429 214.856 203.549 215.736C204.685 216.616 205.429 217.856 205.781 219.456H201.413C201.045 218.432 200.333 217.92 199.277 217.92C198.525 217.92 197.925 218.216 197.477 218.808C197.029 219.384 196.805 220.216 196.805 221.304C196.805 222.392 197.029 223.232 197.477 223.824C197.925 224.4 198.525 224.688 199.277 224.688C200.333 224.688 201.045 224.176 201.413 223.152H205.781C205.429 224.72 204.685 225.952 203.549 226.848C202.413 227.744 201.013 228.192 199.349 228.192C198.037 228.192 196.869 227.912 195.845 227.352C194.837 226.792 194.045 225.992 193.469 224.952C192.909 223.912 192.629 222.696 192.629 221.304ZM216.208 214.464C217.744 214.464 218.976 214.976 219.904 216C220.832 217.008 221.296 218.4 221.296 220.176V228H217.216V220.728C217.216 219.832 216.984 219.136 216.52 218.64C216.056 218.144 215.432 217.896 214.648 217.896C213.864 217.896 213.24 218.144 212.776 218.64C212.312 219.136 212.08 219.832 212.08 220.728V228H207.976V210.24H212.08V216.408C212.496 215.816 213.064 215.344 213.784 214.992C214.504 214.64 215.312 214.464 216.208 214.464ZM232.308 214.464C233.876 214.464 235.124 214.976 236.052 216C236.996 217.008 237.468 218.4 237.468 220.176V228H233.388V220.728C233.388 219.832 233.156 219.136 232.692 218.64C232.228 218.144 231.604 217.896 230.82 217.896C230.036 217.896 229.412 218.144 228.948 218.64C228.484 219.136 228.252 219.832 228.252 220.728V228H224.148V214.608H228.252V216.384C228.668 215.792 229.228 215.328 229.932 214.992C230.636 214.64 231.428 214.464 232.308 214.464ZM246.416 228.192C245.104 228.192 243.92 227.912 242.864 227.352C241.824 226.792 241 225.992 240.392 224.952C239.8 223.912 239.504 222.696 239.504 221.304C239.504 219.928 239.808 218.72 240.416 217.68C241.024 216.624 241.856 215.816 242.912 215.256C243.968 214.696 245.152 214.416 246.464 214.416C247.776 214.416 248.96 214.696 250.016 215.256C251.072 215.816 251.904 216.624 252.512 217.68C253.12 218.72 253.424 219.928 253.424 221.304C253.424 222.68 253.112 223.896 252.488 224.952C251.88 225.992 251.04 226.792 249.968 227.352C248.912 227.912 247.728 228.192 246.416 228.192ZM246.416 224.64C247.2 224.64 247.864 224.352 248.408 223.776C248.968 223.2 249.248 222.376 249.248 221.304C249.248 220.232 248.976 219.408 248.432 218.832C247.904 218.256 247.248 217.968 246.464 217.968C245.664 217.968 245 218.256 244.472 218.832C243.944 219.392 243.68 220.216 243.68 221.304C243.68 222.376 243.936 223.2 244.448 223.776C244.976 224.352 245.632 224.64 246.416 224.64ZM259.705 210.24V228H255.601V210.24H259.705ZM268.775 228.192C267.463 228.192 266.279 227.912 265.223 227.352C264.183 226.792 263.359 225.992 262.751 224.952C262.159 223.912 261.863 222.696 261.863 221.304C261.863 219.928 262.167 218.72 262.775 217.68C263.383 216.624 264.215 215.816 265.271 215.256C266.327 214.696 267.511 214.416 268.823 214.416C270.135 214.416 271.319 214.696 272.375 215.256C273.431 215.816 274.263 216.624 274.871 217.68C275.479 218.72 275.783 219.928 275.783 221.304C275.783 222.68 275.471 223.896 274.847 224.952C274.239 225.992 273.399 226.792 272.327 227.352C271.271 227.912 270.087 228.192 268.775 228.192ZM268.775 224.64C269.559 224.64 270.223 224.352 270.767 223.776C271.327 223.2 271.607 222.376 271.607 221.304C271.607 220.232 271.335 219.408 270.791 218.832C270.263 218.256 269.607 217.968 268.823 217.968C268.023 217.968 267.359 218.256 266.831 218.832C266.303 219.392 266.039 220.216 266.039 221.304C266.039 222.376 266.295 223.2 266.807 223.776C267.335 224.352 267.991 224.64 268.775 224.64ZM283.049 214.416C283.993 214.416 284.817 214.608 285.521 214.992C286.241 215.376 286.793 215.88 287.177 216.504V214.608H291.281V227.976C291.281 229.208 291.033 230.32 290.537 231.312C290.057 232.32 289.313 233.12 288.305 233.712C287.313 234.304 286.073 234.6 284.585 234.6C282.601 234.6 280.993 234.128 279.761 233.184C278.529 232.256 277.825 230.992 277.649 229.392H281.705C281.833 229.904 282.137 230.304 282.617 230.592C283.097 230.896 283.689 231.048 284.393 231.048C285.241 231.048 285.913 230.8 286.409 230.304C286.921 229.824 287.177 229.048 287.177 227.976V226.08C286.777 226.704 286.225 227.216 285.521 227.616C284.817 228 283.993 228.192 283.049 228.192C281.945 228.192 280.945 227.912 280.049 227.352C279.153 226.776 278.441 225.968 277.913 224.928C277.401 223.872 277.145 222.656 277.145 221.28C277.145 219.904 277.401 218.696 277.913 217.656C278.441 216.616 279.153 215.816 280.049 215.256C280.945 214.696 281.945 214.416 283.049 214.416ZM287.177 221.304C287.177 220.28 286.889 219.472 286.313 218.88C285.753 218.288 285.065 217.992 284.249 217.992C283.433 217.992 282.737 218.288 282.161 218.88C281.601 219.456 281.321 220.256 281.321 221.28C281.321 222.304 281.601 223.12 282.161 223.728C282.737 224.32 283.433 224.616 284.249 224.616C285.065 224.616 285.753 224.32 286.313 223.728C286.889 223.136 287.177 222.328 287.177 221.304ZM296.314 213.216C295.594 213.216 295.002 213.008 294.538 212.592C294.09 212.16 293.866 211.632 293.866 211.008C293.866 210.368 294.09 209.84 294.538 209.424C295.002 208.992 295.594 208.776 296.314 208.776C297.018 208.776 297.594 208.992 298.042 209.424C298.506 209.84 298.738 210.368 298.738 211.008C298.738 211.632 298.506 212.16 298.042 212.592C297.594 213.008 297.018 213.216 296.314 213.216ZM298.354 214.608V228H294.25V214.608H298.354ZM313.952 221.088C313.952 221.472 313.928 221.872 313.88 222.288H304.592C304.656 223.12 304.92 223.76 305.384 224.208C305.864 224.64 306.448 224.856 307.136 224.856C308.16 224.856 308.872 224.424 309.272 223.56H313.64C313.416 224.44 313.008 225.232 312.416 225.936C311.84 226.64 311.112 227.192 310.232 227.592C309.352 227.992 308.368 228.192 307.28 228.192C305.968 228.192 304.8 227.912 303.776 227.352C302.752 226.792 301.952 225.992 301.376 224.952C300.8 223.912 300.512 222.696 300.512 221.304C300.512 219.912 300.792 218.696 301.352 217.656C301.928 216.616 302.728 215.816 303.752 215.256C304.776 214.696 305.952 214.416 307.28 214.416C308.576 214.416 309.728 214.688 310.736 215.232C311.744 215.776 312.528 216.552 313.088 217.56C313.664 218.568 313.952 219.744 313.952 221.088ZM309.752 220.008C309.752 219.304 309.512 218.744 309.032 218.328C308.552 217.912 307.952 217.704 307.232 217.704C306.544 217.704 305.96 217.904 305.48 218.304C305.016 218.704 304.728 219.272 304.616 220.008H309.752ZM321.565 228.192C320.397 228.192 319.357 227.992 318.445 227.592C317.533 227.192 316.813 226.648 316.285 225.96C315.757 225.256 315.461 224.472 315.397 223.608H319.453C319.501 224.072 319.717 224.448 320.101 224.736C320.485 225.024 320.957 225.168 321.517 225.168C322.029 225.168 322.421 225.072 322.693 224.88C322.981 224.672 323.125 224.408 323.125 224.088C323.125 223.704 322.925 223.424 322.525 223.248C322.125 223.056 321.477 222.848 320.581 222.624C319.621 222.4 318.821 222.168 318.181 221.928C317.541 221.672 316.989 221.28 316.525 220.752C316.061 220.208 315.829 219.48 315.829 218.568C315.829 217.8 316.037 217.104 316.453 216.48C316.885 215.84 317.509 215.336 318.325 214.968C319.157 214.6 320.141 214.416 321.277 214.416C322.957 214.416 324.277 214.832 325.237 215.664C326.213 216.496 326.773 217.6 326.917 218.976H323.125C323.061 218.512 322.853 218.144 322.501 217.872C322.165 217.6 321.717 217.464 321.157 217.464C320.677 217.464 320.309 217.56 320.053 217.752C319.797 217.928 319.669 218.176 319.669 218.496C319.669 218.88 319.869 219.168 320.269 219.36C320.685 219.552 321.325 219.744 322.189 219.936C323.181 220.192 323.989 220.448 324.613 220.704C325.237 220.944 325.781 221.344 326.245 221.904C326.725 222.448 326.973 223.184 326.989 224.112C326.989 224.896 326.765 225.6 326.317 226.224C325.885 226.832 325.253 227.312 324.421 227.664C323.605 228.016 322.653 228.192 321.565 228.192ZM178.997 247.216C178.277 247.216 177.685 247.008 177.221 246.592C176.773 246.16 176.549 245.632 176.549 245.008C176.549 244.368 176.773 243.84 177.221 243.424C177.685 242.992 178.277 242.776 178.997 242.776C179.701 242.776 180.277 242.992 180.725 243.424C181.189 243.84 181.421 244.368 181.421 245.008C181.421 245.632 181.189 246.16 180.725 246.592C180.277 247.008 179.701 247.216 178.997 247.216ZM181.037 248.608V262H176.933V248.608H181.037ZM192.171 248.464C193.739 248.464 194.987 248.976 195.915 250C196.859 251.008 197.331 252.4 197.331 254.176V262H193.251V254.728C193.251 253.832 193.019 253.136 192.555 252.64C192.091 252.144 191.467 251.896 190.683 251.896C189.899 251.896 189.275 252.144 188.811 252.64C188.347 253.136 188.115 253.832 188.115 254.728V262H184.011V248.608H188.115V250.384C188.531 249.792 189.091 249.328 189.795 248.992C190.499 248.64 191.291 248.464 192.171 248.464ZM208.343 248.464C209.911 248.464 211.159 248.976 212.087 250C213.031 251.008 213.503 252.4 213.503 254.176V262H209.423V254.728C209.423 253.832 209.191 253.136 208.727 252.64C208.263 252.144 207.639 251.896 206.855 251.896C206.071 251.896 205.447 252.144 204.983 252.64C204.519 253.136 204.287 253.832 204.287 254.728V262H200.183V248.608H204.287V250.384C204.703 249.792 205.263 249.328 205.967 248.992C206.671 248.64 207.463 248.464 208.343 248.464ZM222.451 262.192C221.139 262.192 219.955 261.912 218.899 261.352C217.859 260.792 217.035 259.992 216.427 258.952C215.835 257.912 215.539 256.696 215.539 255.304C215.539 253.928 215.843 252.72 216.451 251.68C217.059 250.624 217.891 249.816 218.947 249.256C220.003 248.696 221.187 248.416 222.499 248.416C223.811 248.416 224.995 248.696 226.051 249.256C227.107 249.816 227.939 250.624 228.547 251.68C229.155 252.72 229.459 253.928 229.459 255.304C229.459 256.68 229.147 257.896 228.523 258.952C227.915 259.992 227.075 260.792 226.003 261.352C224.947 261.912 223.763 262.192 222.451 262.192ZM222.451 258.64C223.235 258.64 223.899 258.352 224.443 257.776C225.003 257.2 225.283 256.376 225.283 255.304C225.283 254.232 225.011 253.408 224.467 252.832C223.939 252.256 223.283 251.968 222.499 251.968C221.699 251.968 221.035 252.256 220.507 252.832C219.979 253.392 219.715 254.216 219.715 255.304C219.715 256.376 219.971 257.2 220.483 257.776C221.011 258.352 221.667 258.64 222.451 258.64ZM237.66 258.16L240.564 248.608H244.932L240.18 262H235.116L230.364 248.608H234.756L237.66 258.16ZM245.844 255.28C245.844 253.904 246.1 252.696 246.612 251.656C247.14 250.616 247.852 249.816 248.748 249.256C249.644 248.696 250.644 248.416 251.748 248.416C252.692 248.416 253.516 248.608 254.22 248.992C254.94 249.376 255.492 249.88 255.876 250.504V248.608H259.98V262H255.876V260.104C255.476 260.728 254.916 261.232 254.196 261.616C253.492 262 252.668 262.192 251.724 262.192C250.636 262.192 249.644 261.912 248.748 261.352C247.852 260.776 247.14 259.968 246.612 258.928C246.1 257.872 245.844 256.656 245.844 255.28ZM255.876 255.304C255.876 254.28 255.588 253.472 255.012 252.88C254.452 252.288 253.764 251.992 252.948 251.992C252.132 251.992 251.436 252.288 250.86 252.88C250.3 253.456 250.02 254.256 250.02 255.28C250.02 256.304 250.3 257.12 250.86 257.728C251.436 258.32 252.132 258.616 252.948 258.616C253.764 258.616 254.452 258.32 255.012 257.728C255.588 257.136 255.876 256.328 255.876 255.304ZM271.109 248.464C272.677 248.464 273.925 248.976 274.853 250C275.797 251.008 276.269 252.4 276.269 254.176V262H272.189V254.728C272.189 253.832 271.957 253.136 271.493 252.64C271.029 252.144 270.405 251.896 269.621 251.896C268.837 251.896 268.213 252.144 267.749 252.64C267.285 253.136 267.053 253.832 267.053 254.728V262H262.949V248.608H267.053V250.384C267.469 249.792 268.029 249.328 268.733 248.992C269.437 248.64 270.229 248.464 271.109 248.464ZM286.585 258.52V262H284.497C283.009 262 281.849 261.64 281.017 260.92C280.185 260.184 279.769 258.992 279.769 257.344V252.016H278.137V248.608H279.769V245.344H283.873V248.608H286.561V252.016H283.873V257.392C283.873 257.792 283.969 258.08 284.161 258.256C284.353 258.432 284.673 258.52 285.121 258.52H286.585ZM301.495 255.088C301.495 255.472 301.471 255.872 301.423 256.288H292.135C292.199 257.12 292.463 257.76 292.927 258.208C293.407 258.64 293.991 258.856 294.679 258.856C295.703 258.856 296.415 258.424 296.815 257.56H301.183C300.959 258.44 300.551 259.232 299.959 259.936C299.383 260.64 298.655 261.192 297.775 261.592C296.895 261.992 295.911 262.192 294.823 262.192C293.511 262.192 292.343 261.912 291.319 261.352C290.295 260.792 289.495 259.992 288.919 258.952C288.343 257.912 288.055 256.696 288.055 255.304C288.055 253.912 288.335 252.696 288.895 251.656C289.471 250.616 290.271 249.816 291.295 249.256C292.319 248.696 293.495 248.416 294.823 248.416C296.119 248.416 297.271 248.688 298.279 249.232C299.287 249.776 300.071 250.552 300.631 251.56C301.207 252.568 301.495 253.744 301.495 255.088ZM297.295 254.008C297.295 253.304 297.055 252.744 296.575 252.328C296.095 251.912 295.495 251.704 294.775 251.704C294.087 251.704 293.503 251.904 293.023 252.304C292.559 252.704 292.271 253.272 292.159 254.008H297.295ZM309.108 262.192C307.94 262.192 306.9 261.992 305.988 261.592C305.076 261.192 304.356 260.648 303.828 259.96C303.3 259.256 303.004 258.472 302.94 257.608H306.996C307.044 258.072 307.26 258.448 307.644 258.736C308.028 259.024 308.5 259.168 309.06 259.168C309.572 259.168 309.964 259.072 310.236 258.88C310.524 258.672 310.668 258.408 310.668 258.088C310.668 257.704 310.468 257.424 310.068 257.248C309.668 257.056 309.02 256.848 308.124 256.624C307.164 256.4 306.364 256.168 305.724 255.928C305.084 255.672 304.532 255.28 304.068 254.752C303.604 254.208 303.372 253.48 303.372 252.568C303.372 251.8 303.58 251.104 303.996 250.48C304.428 249.84 305.052 249.336 305.868 248.968C306.7 248.6 307.684 248.416 308.82 248.416C310.5 248.416 311.82 248.832 312.78 249.664C313.756 250.496 314.316 251.6 314.46 252.976H310.668C310.604 252.512 310.396 252.144 310.044 251.872C309.708 251.6 309.26 251.464 308.7 251.464C308.22 251.464 307.852 251.56 307.596 251.752C307.34 251.928 307.212 252.176 307.212 252.496C307.212 252.88 307.412 253.168 307.812 253.36C308.228 253.552 308.868 253.744 309.732 253.936C310.724 254.192 311.532 254.448 312.156 254.704C312.78 254.944 313.324 255.344 313.788 255.904C314.268 256.448 314.516 257.184 314.532 258.112C314.532 258.896 314.308 259.6 313.86 260.224C313.428 260.832 312.796 261.312 311.964 261.664C311.148 262.016 310.196 262.192 309.108 262.192Z" fill="#0B1131"/>
<path d="M281 149C281 129.118 264.882 113 245 113C225.118 113 209 129.118 209 149V185H245C264.882 185 281 168.882 281 149Z" fill="#064635"/>
<path d="M238.697 149.628V157.118" stroke="white" stroke-width="4" stroke-linecap="round" stroke-linejoin="round"/>
<path d="M242.518 153.373H234.876" stroke="white" stroke-width="4" stroke-linecap="round" stroke-linejoin="round"/>
<path d="M251.732 149.856H251.518" stroke="white" stroke-width="4" stroke-linecap="round" stroke-linejoin="round"/>
<path d="M255.359 157.005H255.145" stroke="white" stroke-width="4" stroke-linecap="round" stroke-linejoin="round"/>
<path opacity="0.4" d="M237.144 129C237.144 130.481 238.369 131.682 239.88 131.682H241.993C244.325 131.69 246.213 133.541 246.223 135.825V137.175" stroke="white" stroke-width="4" stroke-linecap="round" stroke-linejoin="round"/>
<path fill-rule="evenodd" clip-rule="evenodd" d="M253.857 168.925C247.846 169.027 241.946 169.023 236.145 168.925C229.707 168.925 225 164.333 225 158.023V148.723C225 142.413 229.707 137.821 236.145 137.821C241.978 137.721 247.882 137.723 253.857 137.821C260.295 137.821 265 142.415 265 148.723V158.023C265 164.333 260.295 168.925 253.857 168.925Z" stroke="white" stroke-width="4" stroke-linecap="round" stroke-linejoin="round"/>
<g filter="url(#filter1_d_156_331)">
<rect x="432" y="244" width="290" height="284" rx="8" fill="white"/>
</g>
<path d="M511.29 405.152V415.232C511.29 416.24 511.538 417.016 512.034 417.56C512.53 418.104 513.258 418.376 514.218 418.376C515.178 418.376 515.914 418.104 516.426 417.56C516.938 417.016 517.194 416.24 517.194 415.232V405.152H521.298V415.208C521.298 416.712 520.978 417.984 520.338 419.024C519.698 420.064 518.834 420.848 517.746 421.376C516.674 421.904 515.474 422.168 514.146 422.168C512.818 422.168 511.626 421.912 510.57 421.4C509.53 420.872 508.706 420.088 508.098 419.048C507.49 417.992 507.186 416.712 507.186 415.208V405.152H511.29ZM532.339 408.464C533.907 408.464 535.155 408.976 536.083 410C537.027 411.008 537.499 412.4 537.499 414.176V422H533.419V414.728C533.419 413.832 533.187 413.136 532.723 412.64C532.259 412.144 531.635 411.896 530.851 411.896C530.067 411.896 529.443 412.144 528.979 412.64C528.515 413.136 528.283 413.832 528.283 414.728V422H524.179V408.608H528.283V410.384C528.699 409.792 529.259 409.328 529.963 408.992C530.667 408.64 531.459 408.464 532.339 408.464ZM552.975 415.088C552.975 415.472 552.951 415.872 552.903 416.288H543.615C543.679 417.12 543.943 417.76 544.407 418.208C544.887 418.64 545.471 418.856 546.159 418.856C547.183 418.856 547.895 418.424 548.295 417.56H552.663C552.439 418.44 552.031 419.232 551.439 419.936C550.863 420.64 550.135 421.192 549.255 421.592C548.375 421.992 547.391 422.192 546.303 422.192C544.991 422.192 543.823 421.912 542.799 421.352C541.775 420.792 540.975 419.992 540.399 418.952C539.823 417.912 539.535 416.696 539.535 415.304C539.535 413.912 539.815 412.696 540.375 411.656C540.951 410.616 541.751 409.816 542.775 409.256C543.799 408.696 544.975 408.416 546.303 408.416C547.599 408.416 548.751 408.688 549.759 409.232C550.767 409.776 551.551 410.552 552.111 411.56C552.687 412.568 552.975 413.744 552.975 415.088ZM548.775 414.008C548.775 413.304 548.535 412.744 548.055 412.328C547.575 411.912 546.975 411.704 546.255 411.704C545.567 411.704 544.983 411.904 544.503 412.304C544.039 412.704 543.751 413.272 543.639 414.008H548.775ZM572.85 415.088C572.85 415.472 572.826 415.872 572.778 416.288H563.49C563.554 417.12 563.818 417.76 564.282 418.208C564.762 418.64 565.346 418.856 566.034 418.856C567.058 418.856 567.77 418.424 568.17 417.56H572.538C572.314 418.44 571.906 419.232 571.314 419.936C570.738 420.64 570.01 421.192 569.13 421.592C568.25 421.992 567.266 422.192 566.178 422.192C564.866 422.192 563.698 421.912 562.674 421.352C561.65 420.792 560.85 419.992 560.274 418.952C559.698 417.912 559.41 416.696 559.41 415.304C559.41 413.912 559.69 412.696 560.25 411.656C560.826 410.616 561.626 409.816 562.65 409.256C563.674 408.696 564.85 408.416 566.178 408.416C567.474 408.416 568.626 408.688 569.634 409.232C570.642 409.776 571.426 410.552 571.986 411.56C572.562 412.568 572.85 413.744 572.85 415.088ZM568.65 414.008C568.65 413.304 568.41 412.744 567.93 412.328C567.45 411.912 566.85 411.704 566.13 411.704C565.442 411.704 564.858 411.904 564.378 412.304C563.914 412.704 563.626 413.272 563.514 414.008H568.65ZM568.938 405.176L563.154 407.6V404.768L568.938 401.984V405.176ZM574.199 415.328C574.199 414 574.471 412.816 575.015 411.776C575.575 410.736 576.319 409.928 577.247 409.352C578.191 408.76 579.215 408.464 580.319 408.464C581.167 408.464 581.927 408.616 582.599 408.92C583.271 409.208 583.815 409.616 584.231 410.144V408.608H588.335V428.384H584.231V420.32C583.767 420.88 583.199 421.328 582.527 421.664C581.871 422 581.119 422.168 580.271 422.168C579.183 422.168 578.175 421.88 577.247 421.304C576.319 420.728 575.575 419.92 575.015 418.88C574.471 417.84 574.199 416.656 574.199 415.328ZM584.231 415.304C584.231 414.584 584.087 413.984 583.799 413.504C583.527 413.008 583.167 412.64 582.719 412.4C582.271 412.144 581.799 412.016 581.303 412.016C580.823 412.016 580.359 412.144 579.911 412.4C579.463 412.64 579.095 413.008 578.807 413.504C578.519 414 578.375 414.608 578.375 415.328C578.375 416.048 578.519 416.656 578.807 417.152C579.095 417.632 579.463 418 579.911 418.256C580.359 418.496 580.823 418.616 581.303 418.616C581.783 418.616 582.247 418.496 582.695 418.256C583.159 418 583.527 417.624 583.799 417.128C584.087 416.632 584.231 416.024 584.231 415.304ZM604.528 408.608V422H600.424V420.176C600.008 420.768 599.44 421.248 598.72 421.616C598.016 421.968 597.232 422.144 596.368 422.144C595.344 422.144 594.44 421.92 593.656 421.472C592.872 421.008 592.264 420.344 591.832 419.48C591.4 418.616 591.184 417.6 591.184 416.432V408.608H595.264V415.88C595.264 416.776 595.496 417.472 595.96 417.968C596.424 418.464 597.048 418.712 597.832 418.712C598.632 418.712 599.264 418.464 599.728 417.968C600.192 417.472 600.424 416.776 600.424 415.88V408.608H604.528ZM609.54 407.216C608.82 407.216 608.228 407.008 607.764 406.592C607.316 406.16 607.092 405.632 607.092 405.008C607.092 404.368 607.316 403.84 607.764 403.424C608.228 402.992 608.82 402.776 609.54 402.776C610.244 402.776 610.82 402.992 611.268 403.424C611.732 403.84 611.964 404.368 611.964 405.008C611.964 405.632 611.732 406.16 611.268 406.592C610.82 407.008 610.244 407.216 609.54 407.216ZM611.58 408.608V422H607.476V408.608H611.58ZM618.658 410.504C619.058 409.88 619.61 409.376 620.314 408.992C621.018 408.608 621.842 408.416 622.786 408.416C623.89 408.416 624.89 408.696 625.786 409.256C626.682 409.816 627.386 410.616 627.898 411.656C628.426 412.696 628.69 413.904 628.69 415.28C628.69 416.656 628.426 417.872 627.898 418.928C627.386 419.968 626.682 420.776 625.786 421.352C624.89 421.912 623.89 422.192 622.786 422.192C621.858 422.192 621.034 422 620.314 421.616C619.61 421.232 619.058 420.736 618.658 420.128V428.384H614.554V408.608H618.658V410.504ZM624.514 415.28C624.514 414.256 624.226 413.456 623.65 412.88C623.09 412.288 622.394 411.992 621.562 411.992C620.746 411.992 620.05 412.288 619.474 412.88C618.914 413.472 618.634 414.28 618.634 415.304C618.634 416.328 618.914 417.136 619.474 417.728C620.05 418.32 620.746 418.616 621.562 418.616C622.378 418.616 623.074 418.32 623.65 417.728C624.226 417.12 624.514 416.304 624.514 415.28ZM643.467 415.088C643.467 415.472 643.443 415.872 643.395 416.288H634.107C634.171 417.12 634.435 417.76 634.899 418.208C635.379 418.64 635.963 418.856 636.651 418.856C637.675 418.856 638.387 418.424 638.787 417.56H643.155C642.931 418.44 642.523 419.232 641.931 419.936C641.355 420.64 640.627 421.192 639.747 421.592C638.867 421.992 637.883 422.192 636.795 422.192C635.483 422.192 634.315 421.912 633.291 421.352C632.267 420.792 631.467 419.992 630.891 418.952C630.315 417.912 630.027 416.696 630.027 415.304C630.027 413.912 630.307 412.696 630.867 411.656C631.443 410.616 632.243 409.816 633.267 409.256C634.291 408.696 635.467 408.416 636.795 408.416C638.091 408.416 639.243 408.688 640.251 409.232C641.259 409.776 642.043 410.552 642.603 411.56C643.179 412.568 643.467 413.744 643.467 415.088ZM639.267 414.008C639.267 413.304 639.027 412.744 638.547 412.328C638.067 411.912 637.467 411.704 636.747 411.704C636.059 411.704 635.475 411.904 634.995 412.304C634.531 412.704 634.243 413.272 634.131 414.008H639.267ZM506.348 449.28C506.348 447.904 506.604 446.696 507.116 445.656C507.644 444.616 508.356 443.816 509.252 443.256C510.148 442.696 511.148 442.416 512.252 442.416C513.132 442.416 513.932 442.6 514.652 442.968C515.388 443.336 515.964 443.832 516.38 444.456V438.24H520.484V456H516.38V454.08C515.996 454.72 515.444 455.232 514.724 455.616C514.02 456 513.196 456.192 512.252 456.192C511.148 456.192 510.148 455.912 509.252 455.352C508.356 454.776 507.644 453.968 507.116 452.928C506.604 451.872 506.348 450.656 506.348 449.28ZM516.38 449.304C516.38 448.28 516.092 447.472 515.516 446.88C514.956 446.288 514.268 445.992 513.452 445.992C512.636 445.992 511.94 446.288 511.364 446.88C510.804 447.456 510.524 448.256 510.524 449.28C510.524 450.304 510.804 451.12 511.364 451.728C511.94 452.32 512.636 452.616 513.452 452.616C514.268 452.616 514.956 452.32 515.516 451.728C516.092 451.136 516.38 450.328 516.38 449.304ZM537.133 442.608L528.733 462.36H524.317L527.389 455.544L521.941 442.608H526.525L529.621 450.984L532.693 442.608H537.133ZM546.777 442.464C548.345 442.464 549.593 442.976 550.521 444C551.465 445.008 551.937 446.4 551.937 448.176V456H547.857V448.728C547.857 447.832 547.625 447.136 547.161 446.64C546.697 446.144 546.073 445.896 545.289 445.896C544.505 445.896 543.881 446.144 543.417 446.64C542.953 447.136 542.721 447.832 542.721 448.728V456H538.617V442.608H542.721V444.384C543.137 443.792 543.697 443.328 544.401 442.992C545.105 442.64 545.897 442.464 546.777 442.464ZM553.973 449.28C553.973 447.904 554.229 446.696 554.741 445.656C555.269 444.616 555.981 443.816 556.877 443.256C557.773 442.696 558.773 442.416 559.877 442.416C560.821 442.416 561.645 442.608 562.349 442.992C563.069 443.376 563.621 443.88 564.005 444.504V442.608H568.109V456H564.005V454.104C563.605 454.728 563.045 455.232 562.325 455.616C561.621 456 560.797 456.192 559.853 456.192C558.765 456.192 557.773 455.912 556.877 455.352C555.981 454.776 555.269 453.968 554.741 452.928C554.229 451.872 553.973 450.656 553.973 449.28ZM564.005 449.304C564.005 448.28 563.717 447.472 563.141 446.88C562.581 446.288 561.893 445.992 561.077 445.992C560.261 445.992 559.565 446.288 558.989 446.88C558.429 447.456 558.149 448.256 558.149 449.28C558.149 450.304 558.429 451.12 558.989 451.728C559.565 452.32 560.261 452.616 561.077 452.616C561.893 452.616 562.581 452.32 563.141 451.728C563.717 451.136 564.005 450.328 564.005 449.304ZM588.166 442.464C589.83 442.464 591.15 442.968 592.126 443.976C593.118 444.984 593.614 446.384 593.614 448.176V456H589.534V448.728C589.534 447.864 589.302 447.2 588.838 446.736C588.39 446.256 587.766 446.016 586.966 446.016C586.166 446.016 585.534 446.256 585.07 446.736C584.622 447.2 584.398 447.864 584.398 448.728V456H580.318V448.728C580.318 447.864 580.086 447.2 579.622 446.736C579.174 446.256 578.55 446.016 577.75 446.016C576.95 446.016 576.318 446.256 575.854 446.736C575.406 447.2 575.182 447.864 575.182 448.728V456H571.078V442.608H575.182V444.288C575.598 443.728 576.142 443.288 576.814 442.968C577.486 442.632 578.246 442.464 579.094 442.464C580.102 442.464 580.998 442.68 581.782 443.112C582.582 443.544 583.206 444.16 583.654 444.96C584.118 444.224 584.75 443.624 585.55 443.16C586.35 442.696 587.222 442.464 588.166 442.464ZM598.548 441.216C597.828 441.216 597.236 441.008 596.772 440.592C596.324 440.16 596.1 439.632 596.1 439.008C596.1 438.368 596.324 437.84 596.772 437.424C597.236 436.992 597.828 436.776 598.548 436.776C599.252 436.776 599.828 436.992 600.276 437.424C600.74 437.84 600.972 438.368 600.972 439.008C600.972 439.632 600.74 440.16 600.276 440.592C599.828 441.008 599.252 441.216 598.548 441.216ZM600.588 442.608V456H596.484V442.608H600.588ZM602.746 449.328C602.746 448 603.018 446.816 603.562 445.776C604.122 444.736 604.866 443.928 605.794 443.352C606.738 442.76 607.762 442.464 608.866 442.464C609.714 442.464 610.474 442.616 611.146 442.92C611.818 443.208 612.362 443.616 612.778 444.144V442.608H616.882V462.384H612.778V454.32C612.314 454.88 611.746 455.328 611.074 455.664C610.418 456 609.666 456.168 608.818 456.168C607.73 456.168 606.722 455.88 605.794 455.304C604.866 454.728 604.122 453.92 603.562 452.88C603.018 451.84 602.746 450.656 602.746 449.328ZM612.778 449.304C612.778 448.584 612.634 447.984 612.346 447.504C612.074 447.008 611.714 446.64 611.266 446.4C610.818 446.144 610.346 446.016 609.85 446.016C609.37 446.016 608.906 446.144 608.458 446.4C608.01 446.64 607.642 447.008 607.354 447.504C607.066 448 606.922 448.608 606.922 449.328C606.922 450.048 607.066 450.656 607.354 451.152C607.642 451.632 608.01 452 608.458 452.256C608.906 452.496 609.37 452.616 609.85 452.616C610.33 452.616 610.794 452.496 611.242 452.256C611.706 452 612.074 451.624 612.346 451.128C612.634 450.632 612.778 450.024 612.778 449.304ZM633.075 442.608V456H628.971V454.176C628.555 454.768 627.987 455.248 627.267 455.616C626.563 455.968 625.779 456.144 624.915 456.144C623.891 456.144 622.987 455.92 622.203 455.472C621.419 455.008 620.811 454.344 620.379 453.48C619.947 452.616 619.731 451.6 619.731 450.432V442.608H623.811V449.88C623.811 450.776 624.043 451.472 624.507 451.968C624.971 452.464 625.595 452.712 626.379 452.712C627.179 452.712 627.811 452.464 628.275 451.968C628.739 451.472 628.971 450.776 628.971 449.88V442.608H633.075ZM648.647 449.088C648.647 449.472 648.623 449.872 648.575 450.288H639.287C639.351 451.12 639.615 451.76 640.079 452.208C640.559 452.64 641.143 452.856 641.831 452.856C642.855 452.856 643.567 452.424 643.967 451.56H648.335C648.111 452.44 647.703 453.232 647.111 453.936C646.535 454.64 645.807 455.192 644.927 455.592C644.047 455.992 643.063 456.192 641.975 456.192C640.663 456.192 639.495 455.912 638.471 455.352C637.447 454.792 636.647 453.992 636.071 452.952C635.495 451.912 635.207 450.696 635.207 449.304C635.207 447.912 635.487 446.696 636.047 445.656C636.623 444.616 637.423 443.816 638.447 443.256C639.471 442.696 640.647 442.416 641.975 442.416C643.271 442.416 644.423 442.688 645.431 443.232C646.439 443.776 647.223 444.552 647.783 445.56C648.359 446.568 648.647 447.744 648.647 449.088ZM644.447 448.008C644.447 447.304 644.207 446.744 643.727 446.328C643.247 445.912 642.647 445.704 641.927 445.704C641.239 445.704 640.655 445.904 640.175 446.304C639.711 446.704 639.423 447.272 639.311 448.008H644.447Z" fill="#0B1131"/>
<path d="M613 343C613 323.118 596.882 307 577 307C557.118 307 541 323.118 541 343V379H577C596.882 379 613 362.882 613 343Z" fill="#064635"/>
<path opacity="0.4" d="M588.024 341.154C591.149 341.154 593.684 338.62 593.684 335.495C593.684 332.37 591.149 329.837 588.024 329.837" stroke="white" stroke-width="4" stroke-linecap="round" stroke-linejoin="round"/>
<path d="M590.626 347.302C591.559 347.367 592.487 347.499 593.4 347.705C594.67 347.953 596.196 348.473 596.74 349.612C597.087 350.342 597.087 351.191 596.74 351.922C596.198 353.061 594.67 353.579 593.4 353.84" stroke="white" stroke-width="4" stroke-linecap="round" stroke-linejoin="round"/>
<path opacity="0.4" d="M565.976 341.154C562.851 341.154 560.316 338.62 560.316 335.495C560.316 332.37 562.851 329.837 565.976 329.837" stroke="white" stroke-width="4" stroke-linecap="round" stroke-linejoin="round"/>
<path d="M563.374 347.302C562.441 347.367 561.513 347.499 560.599 347.705C559.33 347.953 557.803 348.473 557.261 349.612C556.913 350.342 556.913 351.191 557.261 351.922C557.801 353.061 559.33 353.579 560.599 353.84" stroke="white" stroke-width="4" stroke-linecap="round" stroke-linejoin="round"/>
<path fill-rule="evenodd" clip-rule="evenodd" d="M576.991 348.521C583.323 348.521 588.733 349.479 588.733 353.314C588.733 357.147 583.359 358.141 576.991 358.141C570.657 358.141 565.249 357.183 565.249 353.348C565.249 349.513 570.623 348.521 576.991 348.521Z" stroke="white" stroke-width="4" stroke-linecap="round" stroke-linejoin="round"/>
<path opacity="0.4" fill-rule="evenodd" clip-rule="evenodd" d="M576.991 343.051C572.814 343.051 569.466 339.703 569.466 335.525C569.466 331.348 572.814 328 576.991 328C581.167 328 584.515 331.348 584.515 335.525C584.515 339.703 581.167 343.051 576.991 343.051Z" stroke="white" stroke-width="4" stroke-linecap="round" stroke-linejoin="round"/>
<g filter="url(#filter2_d_156_331)">
<rect x="100" y="370" width="290" height="284" rx="8" fill="white"/>
</g>
<path d="M208.867 550.88L206.707 547.976C206.067 548.104 205.443 548.168 204.835 548.168C203.251 548.168 201.795 547.8 200.467 547.064C199.155 546.328 198.107 545.304 197.323 543.992C196.555 542.664 196.171 541.176 196.171 539.528C196.171 537.88 196.555 536.4 197.323 535.088C198.107 533.776 199.155 532.752 200.467 532.016C201.795 531.28 203.251 530.912 204.835 530.912C206.419 530.912 207.867 531.28 209.179 532.016C210.507 532.752 211.547 533.776 212.299 535.088C213.067 536.4 213.451 537.88 213.451 539.528C213.451 540.968 213.155 542.288 212.563 543.488C211.987 544.672 211.179 545.656 210.139 546.44L213.835 550.88H208.867ZM200.371 539.528C200.371 541.016 200.771 542.208 201.571 543.104C202.387 543.984 203.475 544.424 204.835 544.424C206.179 544.424 207.251 543.976 208.051 543.08C208.867 542.184 209.275 541 209.275 539.528C209.275 538.04 208.867 536.856 208.051 535.976C207.251 535.08 206.179 534.632 204.835 534.632C203.475 534.632 202.387 535.072 201.571 535.952C200.771 536.832 200.371 538.024 200.371 539.528ZM229.005 534.608V548H224.901V546.176C224.485 546.768 223.917 547.248 223.197 547.616C222.493 547.968 221.709 548.144 220.845 548.144C219.821 548.144 218.917 547.92 218.133 547.472C217.349 547.008 216.741 546.344 216.309 545.48C215.877 544.616 215.661 543.6 215.661 542.432V534.608H219.741V541.88C219.741 542.776 219.973 543.472 220.437 543.968C220.901 544.464 221.525 544.712 222.309 544.712C223.109 544.712 223.741 544.464 224.205 543.968C224.669 543.472 224.901 542.776 224.901 541.88V534.608H229.005ZM231.137 541.28C231.137 539.904 231.393 538.696 231.905 537.656C232.433 536.616 233.145 535.816 234.041 535.256C234.937 534.696 235.937 534.416 237.041 534.416C237.985 534.416 238.809 534.608 239.513 534.992C240.233 535.376 240.785 535.88 241.169 536.504V534.608H245.273V548H241.169V546.104C240.769 546.728 240.209 547.232 239.489 547.616C238.785 548 237.961 548.192 237.017 548.192C235.929 548.192 234.937 547.912 234.041 547.352C233.145 546.776 232.433 545.968 231.905 544.928C231.393 543.872 231.137 542.656 231.137 541.28ZM241.169 541.304C241.169 540.28 240.881 539.472 240.305 538.88C239.745 538.288 239.057 537.992 238.241 537.992C237.425 537.992 236.729 538.288 236.153 538.88C235.593 539.456 235.313 540.256 235.313 541.28C235.313 542.304 235.593 543.12 236.153 543.728C236.729 544.32 237.425 544.616 238.241 544.616C239.057 544.616 239.745 544.32 240.305 543.728C240.881 543.136 241.169 542.328 241.169 541.304ZM252.346 530.24V548H248.242V530.24H252.346ZM257.384 533.216C256.664 533.216 256.072 533.008 255.608 532.592C255.16 532.16 254.936 531.632 254.936 531.008C254.936 530.368 255.16 529.84 255.608 529.424C256.072 528.992 256.664 528.776 257.384 528.776C258.088 528.776 258.664 528.992 259.112 529.424C259.576 529.84 259.808 530.368 259.808 531.008C259.808 531.632 259.576 532.16 259.112 532.592C258.664 533.008 258.088 533.216 257.384 533.216ZM259.424 534.608V548H255.32V534.608H259.424ZM269.862 544.52V548H267.774C266.286 548 265.126 547.64 264.294 546.92C263.462 546.184 263.046 544.992 263.046 543.344V538.016H261.414V534.608H263.046V531.344H267.15V534.608H269.838V538.016H267.15V543.392C267.15 543.792 267.246 544.08 267.438 544.256C267.63 544.432 267.95 544.52 268.398 544.52H269.862ZM284.772 541.088C284.772 541.472 284.748 541.872 284.7 542.288H275.412C275.476 543.12 275.74 543.76 276.204 544.208C276.684 544.64 277.268 544.856 277.956 544.856C278.98 544.856 279.692 544.424 280.092 543.56H284.46C284.236 544.44 283.828 545.232 283.236 545.936C282.66 546.64 281.932 547.192 281.052 547.592C280.172 547.992 279.188 548.192 278.1 548.192C276.788 548.192 275.62 547.912 274.596 547.352C273.572 546.792 272.772 545.992 272.196 544.952C271.62 543.912 271.332 542.696 271.332 541.304C271.332 539.912 271.612 538.696 272.172 537.656C272.748 536.616 273.548 535.816 274.572 535.256C275.596 534.696 276.772 534.416 278.1 534.416C279.396 534.416 280.548 534.688 281.556 535.232C282.564 535.776 283.348 536.552 283.908 537.56C284.484 538.568 284.772 539.744 284.772 541.088ZM280.572 540.008C280.572 539.304 280.332 538.744 279.852 538.328C279.372 537.912 278.772 537.704 278.052 537.704C277.364 537.704 276.78 537.904 276.3 538.304C275.836 538.704 275.548 539.272 275.436 540.008H280.572ZM280.86 531.176L275.076 533.6V530.768L280.86 527.984V531.176ZM197.645 575.28C197.645 573.904 197.901 572.696 198.413 571.656C198.941 570.616 199.653 569.816 200.549 569.256C201.445 568.696 202.445 568.416 203.549 568.416C204.429 568.416 205.229 568.6 205.949 568.968C206.685 569.336 207.261 569.832 207.677 570.456V564.24H211.781V582H207.677V580.08C207.293 580.72 206.741 581.232 206.021 581.616C205.317 582 204.493 582.192 203.549 582.192C202.445 582.192 201.445 581.912 200.549 581.352C199.653 580.776 198.941 579.968 198.413 578.928C197.901 577.872 197.645 576.656 197.645 575.28ZM207.677 575.304C207.677 574.28 207.389 573.472 206.813 572.88C206.253 572.288 205.565 571.992 204.749 571.992C203.933 571.992 203.237 572.288 202.661 572.88C202.101 573.456 201.821 574.256 201.821 575.28C201.821 576.304 202.101 577.12 202.661 577.728C203.237 578.32 203.933 578.616 204.749 578.616C205.565 578.616 206.253 578.32 206.813 577.728C207.389 577.136 207.677 576.328 207.677 575.304ZM227.374 575.088C227.374 575.472 227.35 575.872 227.302 576.288H218.014C218.078 577.12 218.342 577.76 218.806 578.208C219.286 578.64 219.87 578.856 220.558 578.856C221.582 578.856 222.294 578.424 222.694 577.56H227.062C226.838 578.44 226.43 579.232 225.838 579.936C225.262 580.64 224.534 581.192 223.654 581.592C222.774 581.992 221.79 582.192 220.702 582.192C219.39 582.192 218.222 581.912 217.198 581.352C216.174 580.792 215.374 579.992 214.798 578.952C214.222 577.912 213.934 576.696 213.934 575.304C213.934 573.912 214.214 572.696 214.774 571.656C215.35 570.616 216.15 569.816 217.174 569.256C218.198 568.696 219.374 568.416 220.702 568.416C221.998 568.416 223.15 568.688 224.158 569.232C225.166 569.776 225.95 570.552 226.51 571.56C227.086 572.568 227.374 573.744 227.374 575.088ZM223.174 574.008C223.174 573.304 222.934 572.744 222.454 572.328C221.974 571.912 221.374 571.704 220.654 571.704C219.966 571.704 219.382 571.904 218.902 572.304C218.438 572.704 218.15 573.272 218.038 574.008H223.174ZM233.809 575.304C233.809 573.912 234.089 572.696 234.649 571.656C235.225 570.616 236.017 569.816 237.025 569.256C238.049 568.696 239.217 568.416 240.529 568.416C242.209 568.416 243.609 568.856 244.729 569.736C245.865 570.616 246.609 571.856 246.961 573.456H242.593C242.225 572.432 241.513 571.92 240.457 571.92C239.705 571.92 239.105 572.216 238.657 572.808C238.209 573.384 237.985 574.216 237.985 575.304C237.985 576.392 238.209 577.232 238.657 577.824C239.105 578.4 239.705 578.688 240.457 578.688C241.513 578.688 242.225 578.176 242.593 577.152H246.961C246.609 578.72 245.865 579.952 244.729 580.848C243.593 581.744 242.193 582.192 240.529 582.192C239.217 582.192 238.049 581.912 237.025 581.352C236.017 580.792 235.225 579.992 234.649 578.952C234.089 577.912 233.809 576.696 233.809 575.304ZM255.252 582.192C253.94 582.192 252.756 581.912 251.7 581.352C250.66 580.792 249.836 579.992 249.228 578.952C248.636 577.912 248.34 576.696 248.34 575.304C248.34 573.928 248.644 572.72 249.252 571.68C249.86 570.624 250.692 569.816 251.748 569.256C252.804 568.696 253.988 568.416 255.3 568.416C256.612 568.416 257.796 568.696 258.852 569.256C259.908 569.816 260.74 570.624 261.348 571.68C261.956 572.72 262.26 573.928 262.26 575.304C262.26 576.68 261.948 577.896 261.324 578.952C260.716 579.992 259.876 580.792 258.804 581.352C257.748 581.912 256.564 582.192 255.252 582.192ZM255.252 578.64C256.036 578.64 256.7 578.352 257.244 577.776C257.804 577.2 258.084 576.376 258.084 575.304C258.084 574.232 257.812 573.408 257.268 572.832C256.74 572.256 256.084 571.968 255.3 571.968C254.5 571.968 253.836 572.256 253.308 572.832C252.78 573.392 252.516 574.216 252.516 575.304C252.516 576.376 252.772 577.2 253.284 577.776C253.812 578.352 254.468 578.64 255.252 578.64ZM263.621 575.28C263.621 573.904 263.877 572.696 264.389 571.656C264.917 570.616 265.629 569.816 266.525 569.256C267.421 568.696 268.421 568.416 269.525 568.416C270.405 568.416 271.205 568.6 271.925 568.968C272.661 569.336 273.237 569.832 273.653 570.456V564.24H277.757V582H273.653V580.08C273.269 580.72 272.717 581.232 271.997 581.616C271.293 582 270.469 582.192 269.525 582.192C268.421 582.192 267.421 581.912 266.525 581.352C265.629 580.776 264.917 579.968 264.389 578.928C263.877 577.872 263.621 576.656 263.621 575.28ZM273.653 575.304C273.653 574.28 273.365 573.472 272.789 572.88C272.229 572.288 271.541 571.992 270.725 571.992C269.909 571.992 269.213 572.288 268.637 572.88C268.077 573.456 267.797 574.256 267.797 575.28C267.797 576.304 268.077 577.12 268.637 577.728C269.213 578.32 269.909 578.616 270.725 578.616C271.541 578.616 272.229 578.32 272.789 577.728C273.365 577.136 273.653 576.328 273.653 575.304ZM293.35 575.088C293.35 575.472 293.326 575.872 293.278 576.288H283.99C284.054 577.12 284.318 577.76 284.782 578.208C285.262 578.64 285.846 578.856 286.534 578.856C287.558 578.856 288.27 578.424 288.67 577.56H293.038C292.814 578.44 292.406 579.232 291.814 579.936C291.238 580.64 290.51 581.192 289.63 581.592C288.75 581.992 287.766 582.192 286.678 582.192C285.366 582.192 284.198 581.912 283.174 581.352C282.15 580.792 281.35 579.992 280.774 578.952C280.198 577.912 279.91 576.696 279.91 575.304C279.91 573.912 280.19 572.696 280.75 571.656C281.326 570.616 282.126 569.816 283.15 569.256C284.174 568.696 285.35 568.416 286.678 568.416C287.974 568.416 289.126 568.688 290.134 569.232C291.142 569.776 291.926 570.552 292.486 571.56C293.062 572.568 293.35 573.744 293.35 575.088ZM289.15 574.008C289.15 573.304 288.91 572.744 288.43 572.328C287.95 571.912 287.35 571.704 286.63 571.704C285.942 571.704 285.358 571.904 284.878 572.304C284.414 572.704 284.126 573.272 284.014 574.008H289.15Z" fill="#0B1131"/>
<path d="M281 469C281 449.118 264.882 433 245 433C225.118 433 209 449.118 209 469V505H245C264.882 505 281 488.882 281 469Z" fill="#064635"/>
<path fill-rule="evenodd" clip-rule="evenodd" d="M226.032 453.995C226.698 452.892 230.367 448.882 232.986 449.003C233.768 449.068 234.46 449.541 235.022 450.09C236.313 451.351 240.008 456.118 240.218 457.121C240.728 459.581 237.796 461 238.694 463.48C240.981 469.077 244.923 473.019 250.523 475.304C253.001 476.201 254.419 473.269 256.88 473.782C257.881 473.991 262.65 477.686 263.911 478.977C264.458 479.537 264.933 480.231 264.998 481.014C265.096 483.77 260.836 487.491 260.006 487.967C258.047 489.368 255.491 489.344 252.376 487.895C243.682 484.278 229.788 470.647 226.104 461.625C224.694 458.526 224.597 455.954 226.032 453.995Z" fill="#064635" stroke="white" stroke-width="4" stroke-linecap="round" stroke-linejoin="round"/>
<path opacity="0.4" d="M228.964 451.725L232.057 456.312" stroke="white" stroke-width="4" stroke-linecap="round" stroke-linejoin="round"/>
<path opacity="0.4" d="M257.346 481.772L261.952 485.372" stroke="white" stroke-width="4" stroke-linecap="round" stroke-linejoin="round"/>
<defs>
<filter id="filter0_d_156_331" x="0" y="0" width="490" height="484" filterUnits="userSpaceOnUse" color-interpolation-filters="sRGB">
<feFlood flood-opacity="0" result="BackgroundImageFix"/>
<feColorMatrix in="SourceAlpha" type="matrix" values="0 0 0 0 0 0 0 0 0 0 0 0 0 0 0 0 0 0 127 0" result="hardAlpha"/>
<feOffset dy="50"/>
<feGaussianBlur stdDeviation="50"/>
<feColorMatrix type="matrix" values="0 0 0 0 0 0 0 0 0 0 0 0 0 0 0 0 0 0 0.1 0"/>
<feBlend mode="normal" in2="BackgroundImageFix" result="effect1_dropShadow_156_331"/>
<feBlend mode="normal" in="SourceGraphic" in2="effect1_dropShadow_156_331" result="shape"/>
</filter>
<filter id="filter1_d_156_331" x="332" y="194" width="490" height="484" filterUnits="userSpaceOnUse" color-interpolation-filters="sRGB">
<feFlood flood-opacity="0" result="BackgroundImageFix"/>
<feColorMatrix in="SourceAlpha" type="matrix" values="0 0 0 0 0 0 0 0 0 0 0 0 0 0 0 0 0 0 127 0" result="hardAlpha"/>
<feOffset dy="50"/>
<feGaussianBlur stdDeviation="50"/>
<feColorMatrix type="matrix" values="0 0 0 0 0 0 0 0 0 0 0 0 0 0 0 0 0 0 0.1 0"/>
<feBlend mode="normal" in2="BackgroundImageFix" result="effect1_dropShadow_156_331"/>
<feBlend mode="normal" in="SourceGraphic" in2="effect1_dropShadow_156_331" result="shape"/>
</filter>
<filter id="filter2_d_156_331" x="0" y="320" width="490" height="484" filterUnits="userSpaceOnUse" color-interpolation-filters="sRGB">
<feFlood flood-opacity="0" result="BackgroundImageFix"/>
<feColorMatrix in="SourceAlpha" type="matrix" values="0 0 0 0 0 0 0 0 0 0 0 0 0 0 0 0 0 0 127 0" result="hardAlpha"/>
<feOffset dy="50"/>
<feGaussianBlur stdDeviation="50"/>
<feColorMatrix type="matrix" values="0 0 0 0 0 0 0 0 0 0 0 0 0 0 0 0 0 0 0.1 0"/>
<feBlend mode="normal" in2="BackgroundImageFix" result="effect1_dropShadow_156_331"/>
<feBlend mode="normal" in="SourceGraphic" in2="effect1_dropShadow_156_331" result="shape"/>
</filter>
</defs>
</svg>
